# xmcd CD database file
#
# Track frame offsets:
#	150
#	29231
#	67092
#	108290
#	145886
#	163478
#	188322
#	218099
#
# Disc length: 3356 seconds
#
# Revision: 0
# Processed by: cddbd v1.5.1PL2 Copyright (c) Steve Scherf et al.
# Submitted via: CDex 1.51
#
DISCID=770d1a08
DTITLE=Tim Maglione - Trio - Live At The Rhythm Cafe
DYEAR=2000
DGENRE=Jazz
TTITLE0=Dolphin Dance
TTITLE1=Bag's Groove
TTITLE2=All Blues
TTITLE3=Stolen Moments
TTITLE4=There Will Never Be Another You
TTITLE5=Star Eyes
TTITLE6=Pacific Waltz
TTITLE7=In A Sentimental Mood
EXTD=YEAR: 2000
EXTT0=
EXTT1=
EXTT2=
EXTT3=
EXTT4=
EXTT5=
EXTT6=
EXTT7=
PLAYORDER=
